<svg xmlns="http://www.w3.org/2000/svg" viewBox="0 0 535.05 528.04"><switch><g><path fill="none" d="M0 0h535.05v528.04H0z"/><path d="M274.48 34.7c-2.18-.96-1.74 1.25-2.57 1.86-2.88-2.48-4.44-3.14-7.12-3.03-6.69.27-12.96 8.88-11.19 15.35 1.29 4.68 6.58 6.48 11.4 3.92.53-.28.89-1.16 1.8-.59 3.59 2.25 5.26 2.11 8.52-.43 2.78-2.16 4.26-5.13 5.33-8.37v-5.19c-.67-5.77-4.31-9.06-9.43-10.9-2.84-1.02-5.91-.84-8.87-.64-13.24.9-19.72 13.54-14.15 25.52 2.4 5.14 6.97 7.66 12.6 8.22h6.62c1.67-.58 3.41-1.04 5.02-1.78 3.13-1.44 5.85-3.4 7.67-6.67-1.7.11-1.7.11-2.43.94-3.85 4.33-8.68 6.44-14.46 6.05-6.15-.42-11.25-2.9-13.67-8.84-2.36-5.77-1.71-11.4 2.42-16.37 5.14-6.2 16.81-7.2 22.96-1.96 6.33 5.39 5.23 15.93-2.08 19.84-1.28.68-2.81 1.39-3.99.46-1.35-1.06-.42-2.62.1-3.9 1.82-4.51 3.68-8.99 5.52-13.49zm-7.37 13.5c-1.3 2.64-3.42 4.24-6.52 4.22-3.59-.02-5.68-2.15-5.6-5.74.13-5.43 4.07-10.53 8.77-11.49 1.72-.34 3.28.01 4.78.72 2.24 1.06 2.73 2.41 1.78 4.72-1.04 2.54-2.01 5.11-3.21 7.57z" fill="#ec7400" stroke="#ec7400" stroke-miterlimit="10"/></g></switch></svg>