<svg xmlns="http://www.w3.org/2000/svg" viewBox="0 0 535.05 528.04"><switch><g><path fill="none" d="M0 0h535.05v528.04H0z"/><g fill="#d23920"><path d="M332.91 106.25c-.48-.25-.97-.05-1.26.53-.36.73-.7 1.47-1.07 2.2-.08.17-.21.36-.37.43-.75.31-1.51.59-2.18.84-.73-.77-1.35-1.54-2.09-2.16-.73-.62-1.58-1.09-2.35-1.61.32-.43.64-.9 1.01-1.34.1-.12.33-.19.5-.2 2.25-.08 3.46-1.17 3.71-3.4.1-.91-.13-1.38-.73-1.46-.63-.08-.93.29-1.02 1.28-.09 1.11-.58 1.66-1.56 1.8-.35.05-.53.01-.62-.4-.27-1.2-1.03-2.06-2.1-2.63-1.57-.84-3.21-.9-4.84-.2-1.32.57-2.23 1.52-2.55 2.96-.02.09-.07.18-.09.25-1.26.04-1.88-.47-2.02-1.65-.02-.16-.03-.32-.04-.48-.06-.64-.39-.97-.92-.95-.53.02-.83.4-.83 1.03 0 2.36 1.36 3.76 3.71 3.84.17.01.4.07.5.19.38.45.72.94 1.09 1.43-1.82.78-3.26 2.06-4.4 3.73-.72-.27-1.41-.51-2.08-.81-.23-.1-.46-.31-.58-.53-.38-.7-.7-1.43-1.05-2.15-.29-.59-.77-.8-1.25-.57-.48.23-.62.73-.34 1.33.39.83.82 1.64 1.19 2.48.22.49.53.8 1.05.97.73.24 1.44.55 2.12.81-.34 1.12-.65 2.18-.98 3.28-.51 0-1.03-.05-1.54.02-.39.05-.86.16-1.12.41-.6.6-1.11 1.3-1.64 1.97-.38.49-.35 1.01.06 1.32.39.3.95.21 1.32-.23.29-.35.57-.72.85-1.08.54-.69 1.1-.85 2.03-.58.08 1.81.29 3.6 1.12 5.34-.84.32-1.63.61-2.4.93-.23.09-.5.24-.61.44-.54 1.04-1.07 2.1-1.54 3.17-.2.46 0 .88.47 1.09.45.2.83.06 1.09-.35.18-.29.35-.59.45-.91.43-1.48 1.43-2.29 2.9-2.64.4-.1.59-.07.83.27.97 1.35 2.19 2.42 3.71 3.13.7.33 1.05.23 1.44-.44.7-1.23 1.38-2.47 2.07-3.7.11-.2.23-.39.38-.64.13.26.22.43.31.61.59 1.22 1.17 2.44 1.77 3.66.32.65.74.87 1.29.6.74-.37 1.44-.82 2.12-1.22-.45-.49-.82-.89-1.21-1.32-.3.18-.58.36-.91.56-.81-1.7-1.61-3.34-2.39-4.99-.06-.12-.05-.27-.06-.41-.05-1.81-.09-3.63-.13-5.44-.02-1.08-.03-2.15-.07-3.23-.02-.65-.41-1.05-.93-1.02-.51.03-.82.42-.83 1.04v.3c.07 2.71.14 5.42.19 8.13.01.3-.05.64-.19.91-.79 1.47-1.62 2.93-2.43 4.39-.06.11-.16.21-.25.33-.29-.2-.56-.37-.81-.57-4.58-3.57-5.11-11.7-.03-15.74 2.63-2.1 6.08-2.1 8.74-.06 1.45 1.11 2.42 2.58 3.04 4.28.07.2.14.4.21.61.6-.12 1.14-.24 1.73-.36-.22-.61-.43-1.21-.65-1.85.78-.3 1.56-.56 2.29-.9.3-.14.62-.39.77-.67.49-.89.91-1.82 1.34-2.73.25-.53.11-1.04-.34-1.27zm-10.26-1.37c-.68.7-1.55.93-2.48.96-.92-.04-1.75-.27-2.42-.91-.84-.81-.85-1.93-.03-2.76 1.23-1.25 3.74-1.23 4.95.03.76.82.76 1.88-.02 2.68z"/><path d="M341.57 128.12c-1.9-2.04-3.86-4.03-5.8-6.03-.27-.28-.37-.53-.33-.94.36-3.83-3.2-6.82-6.87-5.78-1.13.32-1.3 1.01-.49 1.87.46.49.91.99 1.39 1.53-.42.39-.81.75-1.22 1.12-.59-.63-1.14-1.23-1.7-1.82-.42-.44-1.11-.4-1.36.11-.19.39-.37.8-.47 1.22-.79 3.42 1.79 6.67 5.3 6.67.4 0 .65.12.91.42 1.75 2.07 3.51 4.13 5.27 6.19.97 1.14 2.19 1.59 3.64 1.23 2.6-.64 3.56-3.82 1.73-5.79zm-.88 2.81c-.18.67-.61 1.11-1.3 1.27-.73.17-1.33-.07-1.81-.64-1.61-1.88-3.21-3.76-4.82-5.64-.1-.12-.22-.23-.31-.37-.62-.94-1.37-1.38-2.61-1.31-1.95.11-3.54-1.7-3.46-3.79.4.44.71.79 1.03 1.14.49.52.92.55 1.45.09.79-.7 1.57-1.41 2.35-2.13.49-.45.5-.89.07-1.41-.15-.18-.32-.35-.48-.53-.16-.18-.31-.35-.57-.65.33.04.53.05.72.1 1.91.49 3.11 2.37 2.68 4.31-.14.63.01 1.05.44 1.49 2.02 2.07 4.01 4.16 6.02 6.24.51.52.79 1.11.6 1.83z"/></g></g></switch></svg>