<svg xmlns="http://www.w3.org/2000/svg" viewBox="0 0 535.05 528.04"><switch><g><path fill="none" d="M0 0h535.05v528.04H0z"/><g fill="#20d28d"><path d="M249.95 46.17c.83 0 1.48-.21 1.94-.62.46-.41.69-.99.69-1.74V37.5c0-1.87.52-3.32 1.57-4.35 1.04-1.03 2.52-1.54 4.42-1.54v2.99c-.9 0-1.6.22-2.1.66-.49.44-.74 1.07-.74 1.88v6.68c0 1.7-.5 3.01-1.51 3.94-1.01.93-2.43 1.4-4.26 1.4v-2.99zm4.18 16.02c-1.04-1.02-1.57-2.47-1.57-4.34v-6.32c0-.75-.23-1.33-.69-1.74-.46-.41-1.1-.62-1.94-.62v-2.99c1.84 0 3.26.48 4.27 1.44 1 .96 1.5 2.32 1.5 4.08v6.48c0 .81.25 1.44.74 1.89.49.45 1.19.67 2.1.67v2.99c-1.89 0-3.36-.51-4.41-1.54zM272.62 47.77c-1.01-.93-1.51-2.24-1.51-3.94v-6.68c0-.81-.25-1.44-.74-1.88-.49-.44-1.19-.66-2.1-.66v-2.99c1.9 0 3.38.51 4.42 1.54s1.57 2.48 1.57 4.35v6.31c0 .75.23 1.33.69 1.74.46.41 1.1.62 1.94.62v2.99c-1.84 0-3.26-.47-4.27-1.4zm-4.35 12.96c.9 0 1.6-.22 2.1-.67.49-.45.74-1.08.74-1.89V51.7c0-1.76.5-3.12 1.5-4.08s2.42-1.44 4.27-1.44v2.99c-.83 0-1.48.21-1.94.62-.46.41-.69.99-.69 1.74v6.32c0 1.87-.52 3.32-1.57 4.34-1.04 1.02-2.52 1.53-4.42 1.53v-2.99z"/></g></g></switch></svg>