<svg viewBox="0 0 256 256" xmlns="http://www.w3.org/2000/svg"><path d="M128 226.833A98.833 98.833 0 11226.833 128 98.945 98.945 0 01128 226.833zm0-192.666A93.833 93.833 0 10221.833 128 93.939 93.939 0 00128 34.167z" /><path d="M128 206.268A78.268 78.268 0 11206.268 128 78.357 78.357 0 01128 206.268zm0-151.536A73.268 73.268 0 10201.268 128 73.351 73.351 0 00128 54.732z" /><g ><path d="M156.238 140.318h10.489a2.5 2.5 0 000-5h-10.489v-10.037a15.5 15.5 0 0012.989-15.268 2.5 2.5 0 00-5 0 10.5 10.5 0 01-8.127 10.21 28.188 28.188 0 00-9.375-18.333 14.886 14.886 0 0114.854-14.39 2.5 2.5 0 000-5 19.906 19.906 0 00-19.5 16.04 28.139 28.139 0 00-28.16 0 19.906 19.906 0 00-19.5-16.04 2.5 2.5 0 100 5 14.886 14.886 0 0114.854 14.39 28.188 28.188 0 00-9.373 18.333 10.5 10.5 0 01-8.127-10.21 2.5 2.5 0 00-5 0 15.5 15.5 0 0012.989 15.268v10.037H89.273a2.5 2.5 0 000 5h10.489v4.944a28.194 28.194 0 00.416 4.8 15.5 15.5 0 00-13.4 15.332 2.5 2.5 0 005 0 10.5 10.5 0 019.7-10.449 28.24 28.24 0 0053.058 0 10.5 10.5 0 019.7 10.449 2.5 2.5 0 005 0 15.5 15.5 0 00-13.4-15.332 28.194 28.194 0 00.416-4.8zM128 99.764a23.245 23.245 0 0119.984 11.4 2.473 2.473 0 00-.194.964 19.79 19.79 0 11-39.58 0 2.473 2.473 0 00-.194-.964A23.245 23.245 0 01128 99.764zm-23.238 45.5V123c0-.678.035-1.349.093-2.013a24.847 24.847 0 0020.645 15.8v31.576a23.271 23.271 0 01-20.738-23.101zm25.738 23.1v-31.576a24.847 24.847 0 0020.645-15.8c.058.664.093 1.335.093 2.013v22.261a23.271 23.271 0 01-20.738 23.102zM128 67.149a2.5 2.5 0 01-2.5-2.5V20.983a2.5 2.5 0 015 0v43.666a2.5 2.5 0 01-2.5 2.5zM128 237.517a2.5 2.5 0 01-2.5-2.5v-43.666a2.5 2.5 0 015 0v43.666a2.5 2.5 0 01-2.5 2.5zM235.017 130.5h-43.666a2.5 2.5 0 010-5h43.666a2.5 2.5 0 010 5zM64.649 130.5H20.983a2.5 2.5 0 010-5h43.666a2.5 2.5 0 010 5z"/></g></svg>