<svg xmlns="http://www.w3.org/2000/svg" viewBox="0 0 496 496"><path d="M447.82 390.192c-5.376-32.232-27.976-58.68-58.976-69.016l-68.84-22.944V288h-16v21.768l20.28 6.76-24.064 42.776L259.684 312h-23.36l-40.536 47.304-24.064-42.776 20.28-6.76V288h-16v10.232l-68.832 22.944c-31 10.336-53.6 36.784-58.976 69.016L30.556 496h434.888L447.82 390.192zM243.684 328h8.64l39.552 46.136-27 48c-3.416 6.08-9.888 9.864-16.872 9.864s-13.456-3.784-16.872-9.864l-27-47.992L243.684 328zm-87.416-6.32l60.912 108.296c6.256 11.12 18.064 18.024 30.824 18.024s24.568-6.904 30.816-18.024l60.92-108.304 15.464 5.152-62.44 110.992c-9.08 16.152-26.232 26.184-44.76 26.184s-35.688-10.032-44.768-26.184l-62.424-110.984 15.456-5.152zm-44.224 85.52l-7.28 72.8H49.452l14.52-87.176c4.4-26.368 22.888-48.008 48.256-56.472l13.12-4.376 63.936 113.68c11.834 21.046 34.124 34.166 58.247 34.336H120.844l7.12-71.2-15.92-1.592zm279.2 72.8l-7.28-72.8-15.92 1.592 7.12 71.2H248.477c24.122-.17 46.412-13.29 58.231-34.328l63.952-113.688 13.12 4.376c25.368 8.464 43.856 30.104 48.256 56.472L446.556 480h-55.312z"/><path d="M147.54 215.552c4.08 14.04 11.616 26.912 22.24 37.536l31.192 31.192c7.552 7.552 17.6 11.72 28.288 11.72h37.488c10.688 0 20.736-4.168 28.288-11.72l31.192-31.192c10.624-10.624 18.152-23.504 22.24-37.536 19.936-2.256 35.536-19.024 35.536-39.552 0-13.128-6.448-24.704-16.248-32h.248v-24c0-66.168-53.832-120-120-120s-120 53.832-120 120v24h.248c-9.8 7.296-16.248 18.872-16.248 32 0 20.528 15.6 37.296 35.536 39.552zM224.004 152v24c0 4.408-3.584 8-8 8h-48c-4.416 0-8-3.592-8-8v-24h64zm-13.44-16c14.168-8.224 26.736-19.256 36.496-32.92l.944-1.32.944 1.32c9.76 13.664 22.328 24.696 36.496 32.92h-74.88zm104.352 105.776l-31.192 31.192c-4.536 4.536-10.56 7.032-16.976 7.032H229.26c-6.416 0-12.448-2.496-16.976-7.032l-31.192-31.192c-11.736-11.744-18.896-26.832-20.64-43.112 2.384.8 4.896 1.336 7.552 1.336h48c13.232 0 24-10.768 24-24v-24h16v24c0 13.232 10.768 24 24 24h48c2.656 0 5.168-.536 7.552-1.336-1.744 16.28-8.904 31.368-20.64 43.112zM336.004 176c0 4.408-3.584 8-8 8h-48c-4.416 0-8-3.592-8-8v-24h64v24zm32 0c0 10.552-6.896 19.44-16.376 22.64.224-2.568.376-5.16.376-7.776V153.472c9.288 3.312 16 12.112 16 22.528zm-224-56c0-57.344 46.656-104 104-104s104 46.656 104 104v16h-8c-32.496 0-63.16-15.784-82.04-42.224l-13.96-19.536-13.96 19.536C215.164 120.216 184.5 136 152.004 136h-8v-16zm0 33.472V190.864c0 2.616.152 5.208.376 7.784-9.48-3.208-16.376-12.096-16.376-22.648 0-10.416 6.712-19.216 16-22.528z"/></svg>