<svg xmlns="http://www.w3.org/2000/svg" viewBox="0 0 535.05 528.04"><switch><g><path fill="none" d="M0 0h535.05v528.04H0z"/><path d="M221.96 121.51v-6h-3.39c-.28-1.1-.71-2.13-1.28-3.09l2.4-2.4-4.24-4.24-2.4 2.4c-.95-.56-1.99-.99-3.09-1.28v-3.39h-6v3.39c-1.1.28-2.13.71-3.09 1.28l-2.4-2.4-4.24 4.24 2.4 2.4c-.56.95-.99 1.99-1.28 3.09h-3.39v6h3.39c.28 1.1.71 2.13 1.28 3.09l-2.4 2.4 4.24 4.24 2.4-2.4c.95.56 1.99.99 3.09 1.28v3.39h6v-3.39c1.1-.28 2.13-.71 3.09-1.28l2.4 2.4 4.24-4.24-2.4-2.4c.56-.95.99-1.99 1.28-3.09h3.39zm-15 3c-3.31 0-6-2.69-6-6s2.69-6 6-6 6 2.69 6 6-2.68 6-6 6z" fill="#e0ec0c" stroke="#e0ec0c" stroke-miterlimit="10"/></g></switch></svg>