<svg xmlns="http://www.w3.org/2000/svg" viewBox="0 0 535.05 528.04"><switch><g><path fill="none" d="M0 0h535.05v528.04H0z"/><g fill="#f9b80c" stroke="#f9b80c" stroke-miterlimit="10"><path d="M334.87 122.91c-2.2-2.13-4.33-4.33-6.46-6.53-.73-.75-1.53-1.24-2.62-1.38-2.2-.29-2.66-1.32-1.57-3.24 2.68-4.72 1.88-10.18-1.92-13.77-1.12-1.06-2.44-1.7-3.91-2.25-.88-.32-1.82-.48-2.76-.48l-1.32-.01c-.41 0-.81.04-1.21.12-.24.05-.5.09-.61.12-4.75 1.14-7.45 4.3-8.24 8.94-.76 4.43.93 8.12 4.62 10.62 3.87 2.61 7.95 2.59 11.98.14 1.33-.81 2.92-.22 2.95 1.36.04 1.76 1.06 2.71 2.09 3.76 2.04 2.07 4.1 4.13 6.15 6.2 2.16 2.18 2.78 2.21 5.06.24v-.95c-.64-1.04-1.34-2.02-2.23-2.89zm-19.89-7.46c-5.28.02-9.47-4.09-9.49-9.31-.02-5.14 4.27-9.52 9.36-9.56 5.05-.03 9.49 4.36 9.5 9.42a9.375 9.375 0 01-9.37 9.45zm20.09 11.08c-.39.26-.76.08-1.05-.21-2.77-2.77-5.54-5.54-8.3-8.32-.34-.35-.56-.78-.1-1.22.37-.35.77-.24 1.05.04 2.83 2.82 5.64 5.66 8.44 8.5.16.16.22.41.34.64-.13.2-.21.45-.38.57z"/><path d="M315.23 98.43a7.84 7.84 0 00-7.85 7.74c-.05 4.25 3.46 7.81 7.74 7.83 4.3.02 7.82-3.46 7.83-7.73.01-4.31-3.46-7.83-7.72-7.84zm.09 14.12c-3.37.06-6.43-2.87-6.48-6.17-.05-3.51 2.85-6.51 6.33-6.54 3.4-.02 6.29 2.85 6.33 6.27.03 3.43-2.81 6.39-6.18 6.44z"/></g></g></switch></svg>