<svg viewBox="0 0 300 300" xmlns="http://www.w3.org/2000/svg"><path d="M249.476 184.009a98.74 98.74 0 00-32.336-73.069c43.437-52.252 36.958-74.241 33.893-79.806a4.276 4.276 0 00-1.622-2.034l-.122-.081a4.272 4.272 0 00-2.488-.707c-6.362-.695-29.418 1.836-61.23 63.291-14.673-5.538-30.159-7.468-46.059-5.71-45.552 5.031-82.115 41.771-86.94 87.36-3.268 30.871 7.641 60.803 29.93 82.121 10.211 9.766 23.016 15.559 36.057 16.312a48.52 48.52 0 002.826.083c17.916-.001 28.893-10.403 31.02-29.551 2.583-23.246 19.572-28.925 33.37-29.597 5.423-.261 11.34.762 17.581 3.048 8.824 3.233 25.801 6.491 40.329-8.037 5.791-5.792 5.791-17.836 5.791-23.623zM244.5 36.351c1.875 6.437 3.666 32.531-55.593 93.998l-9.712-6.468a517.38 517.38 0 015.773-12.877l13.469-.367a4 4 0 003.889-4.107c-.06-2.208-1.889-3.93-4.107-3.89l-9.381.256c.501-1.023 1-2.031 1.497-3.023l15.554-.424a4 4 0 003.889-4.107c-.06-2.208-1.884-3.925-4.107-3.89l-11.15.304c25.916-48.708 44.368-54.773 49.979-55.405zm-96.744 133.021c-1.848-2.296-4.179-3.998-6.787-5.014l6.823-10.246c1.95-1.704 4.875-1.909 7.087-.436 2.697 1.796 3.456 5.414 1.699 8.052-.002.004-.061.09-.062.094a13.722 13.722 0 00-2.025 10.455 13.94 13.94 0 005.97 8.839 14.007 14.007 0 005.486 2.169c-3.773 4.391-8.826 7.409-14.526 8.607-2.098.44-4.208.618-6.282.542 2.462-2.024 4.315-4.747 5.367-7.949 1.679-5.124.627-10.915-2.75-15.113zm24.388-23.419c7.226 4.812 9.098 14.743 4.174 22.136l-3.193 4.794a5.785 5.785 0 01-3.738 2.482 5.996 5.996 0 01-4.492-.908 5.992 5.992 0 01-2.569-3.796 5.776 5.776 0 01.842-4.395c.002-.004.061-.09.062-.094 4.209-6.32 2.452-14.914-3.916-19.155a13.75 13.75 0 00-3.462-1.664c5.021-2.751 11.294-2.729 16.292.6zm8.258-4.112l-8.197-5.46 3.48-5.227 8.197 5.46zm57.625 60.135c-10.814 10.814-23.326 9.331-31.921 6.182-7.247-2.656-14.21-3.838-20.722-3.527-32.241 1.568-39.484 23.669-40.933 36.703-1.771 15.938-10.079 23.253-25.434 22.365-11.145-.645-22.149-5.655-30.988-14.107C67.546 230 57.52 202.482 60.525 174.094c4.433-41.878 38.021-75.628 79.864-80.25 14.337-1.585 28.31.084 41.554 4.943a456.354 456.354 0 00-2.919 6.05 3.948 3.948 0 00-.5 1.062 526.018 526.018 0 00-7.999 17.899c-.15.354-.232.719-.276 1.085l-6.921 10.393c-.021.031-.031.065-.051.097a24.206 24.206 0 00-19.828 10.827l-2.011 3.02-10.562 15.859a4 4 0 003.603 6.208c1.6-.112 4.661.145 7.041 3.101 1.672 2.079 2.215 5.063 1.381 7.603-.818 2.494-2.509 4.43-4.76 5.452-2.146.975-4.595 1.016-6.72.115a4 4 0 00-5.499 4.394l.041.241a4 4 0 001.731 2.688c5.516 3.673 11.857 5.574 18.364 5.573 2.323 0 4.669-.243 7.003-.733 8.847-1.858 16.5-7.059 21.551-14.643l4.279-6.425.427-.64c.053-.079.084-.165.131-.246.109-.151.228-.292.331-.448l3.193-4.794a24.199 24.199 0 002.042-23.181l7.426-11.15c7.33-7.52 13.798-14.56 19.516-21.155a90.745 90.745 0 0129.517 66.971c.002 3.969.002 14.516-3.447 17.966z"/><path d="M112.874 113.181c-9.996 0-18.128 8.132-18.128 18.128s8.132 18.128 18.128 18.128 18.128-8.132 18.128-18.128-8.132-18.128-18.128-18.128zm0 28.256c-5.585 0-10.128-4.543-10.128-10.128 0-5.584 4.543-10.128 10.128-10.128s10.128 4.543 10.128 10.128-4.543 10.128-10.128 10.128zM110.031 175.659c0-9.996-8.132-18.128-18.128-18.128s-18.128 8.132-18.128 18.128 8.132 18.128 18.128 18.128 18.128-8.132 18.128-18.128zm-28.256 0c0-5.584 4.543-10.128 10.128-10.128s10.128 4.543 10.128 10.128-4.543 10.128-10.128 10.128-10.128-4.544-10.128-10.128zM107.282 204.366c-9.996 0-18.128 8.132-18.128 18.128s8.132 18.128 18.128 18.128 18.128-8.132 18.128-18.128-8.132-18.128-18.128-18.128zm0 28.256c-5.585 0-10.128-4.543-10.128-10.128s4.543-10.128 10.128-10.128 10.128 4.543 10.128 10.128-4.543 10.128-10.128 10.128zM197.309 179.387c0 9.996 8.132 18.128 18.128 18.128s18.128-8.132 18.128-18.128-8.132-18.128-18.128-18.128-18.128 8.132-18.128 18.128zm28.256 0c0 5.584-4.543 10.128-10.128 10.128s-10.128-4.543-10.128-10.128 4.543-10.128 10.128-10.128 10.128 4.543 10.128 10.128zM60 48.864a4 4 0 004-4V33.27a4 4 0 00-8 0v11.593a4 4 0 004 4.001zM60 56.321a4 4 0 00-4 4v11.593a4 4 0 008 0V60.321a4 4 0 00-4-4zM56 53.27a4 4 0 00-4-4H40a4 4 0 000 8h12a4 4 0 004-4zM68 57.27h12a4 4 0 000-8H68a4 4 0 000 8zM250 233.27c-7.72 0-14 6.128-14 13.661s6.28 13.661 14 13.661 14-6.128 14-13.661c0-7.532-6.281-13.661-14-13.661zm0 19.323c-3.309 0-6-2.54-6-5.661 0-3.122 2.691-5.661 6-5.661s6 2.54 6 5.661c0 3.12-2.692 5.661-6 5.661zM162 68.593c7.72 0 14-6.128 14-13.661s-6.28-13.661-14-13.661-14 6.128-14 13.661 6.28 13.661 14 13.661zm0-19.323c3.309 0 6 2.54 6 5.661s-2.691 5.661-6 5.661-6-2.54-6-5.661 2.691-5.661 6-5.661zM184 240.999c-2.209 0-4 1.73-4 3.864s1.791 3.864 4 3.864 4-1.73 4-3.864-1.791-3.864-4-3.864zM260 148.728c2.209 0 4-1.73 4-3.864S262.209 141 260 141s-4 1.73-4 3.864 1.791 3.864 4 3.864zM40 104.999c-2.209 0-4 1.73-4 3.864s1.791 3.864 4 3.864 4-1.73 4-3.864-1.791-3.864-4-3.864zM112 44.728c2.209 0 4-1.73 4-3.864S114.209 37 112 37s-4 1.73-4 3.864 1.791 3.864 4 3.864z"/></svg>