<svg xmlns="http://www.w3.org/2000/svg" viewBox="0 0 535.05 528.04">
	<g>
		<path fill="none" d="M0 0h535.05v528.04H0z"/>
		<g fill="#090">
			<path d="M321.6 94.35c-8.9 0-16.14 7.24-16.14 16.14s7.24 16.14 16.14 16.14c3.92 0 6.07-.63 6.76-1.99.82-1.61-.64-3.63-2.05-5.58-1.15-1.59-2.34-3.23-1.65-3.88 1.08-1.03 3.44-.98 5.72-.93 2.49.05 5.06.1 6.42-1.23.62-.61.94-1.46.94-2.53 0-8.9-7.24-16.14-16.14-16.14zm14.45 17.91c-1.04 1.02-3.38.97-5.64.92-2.5-.05-5.09-.1-6.49 1.23-1.36 1.3.11 3.33 1.52 5.29 1.16 1.61 2.48 3.44 1.96 4.46-.33.64-1.6 1.4-5.81 1.4-8.31 0-15.07-6.76-15.07-15.07s6.76-15.07 15.07-15.07 15.07 6.76 15.07 15.07c0 .78-.2 1.36-.61 1.77z"/>
			<path d="M320.99 108.92c-1.61.24-2.93 1.59-3.13 3.21a3.72 3.72 0 002.16 3.86c.15.07.31.1.47.1.26 0 .51-.09.71-.26.33-.28.47-.71.36-1.13-.13-.49-.16-1.18.41-1.72.16-.15.78-.34 1.99-.35.37 0 .72-.19.92-.51.2-.31.23-.71.08-1.04-.68-1.51-2.31-2.4-3.97-2.16zm.24 3.3c-.74.7-.99 1.68-.72 2.8-.01.01-.02.01-.04 0a2.66 2.66 0 01-1.54-2.75c.14-1.15 1.08-2.11 2.22-2.28.14-.02.27-.03.41-.03 1.04 0 1.98.6 2.39 1.62-2.06.01-2.56.48-2.72.64zM321.6 101.88c1.48 0 2.69-1.21 2.69-2.69s-1.21-2.69-2.69-2.69-2.69 1.21-2.69 2.69 1.21 2.69 2.69 2.69zm0-4.3a1.609 1.609 0 110 3.22c-.89 0-1.61-.72-1.61-1.61-.01-.89.72-1.61 1.61-1.61zM318.91 121.79c0 1.48 1.21 2.69 2.69 2.69s2.69-1.21 2.69-2.69-1.21-2.69-2.69-2.69-2.69 1.21-2.69 2.69zm4.3 0a1.609 1.609 0 11-3.22 0 1.609 1.609 0 113.22 0zM330.21 109.42c0 1.48 1.21 2.69 2.69 2.69s2.69-1.21 2.69-2.69-1.21-2.69-2.69-2.69-2.69 1.2-2.69 2.69zm2.69-1.62a1.609 1.609 0 110 3.22c-.89 0-1.61-.72-1.61-1.61-.01-.88.72-1.61 1.61-1.61zM312.99 110.49c0-1.48-1.21-2.69-2.69-2.69s-2.69 1.21-2.69 2.69 1.21 2.69 2.69 2.69 2.69-1.2 2.69-2.69zm-2.69 1.62a1.609 1.609 0 110-3.22 1.609 1.609 0 110 3.22zM311.71 100.6a2.686 2.686 0 000 3.8c.52.52 1.21.79 1.9.79s1.38-.26 1.9-.79a2.686 2.686 0 000-3.8 2.686 2.686 0 00-3.8 0zm3.04 3.05a1.611 1.611 0 110-2.28c.63.62.63 1.65 0 2.28zM330.5 100.6c-.51-.51-1.18-.79-1.9-.79s-1.39.28-1.9.79a2.686 2.686 0 000 3.8c.52.52 1.21.79 1.9.79s1.38-.26 1.9-.79c1.04-1.04 1.04-2.75 0-3.8zm-.77 3.05c-.61.61-1.67.61-2.28 0a1.611 1.611 0 112.28-2.28c.63.62.63 1.65 0 2.28zM311.71 116.58a2.686 2.686 0 000 3.8c.52.52 1.21.79 1.9.79s1.38-.26 1.9-.79a2.686 2.686 0 000-3.8 2.686 2.686 0 00-3.8 0zm3.04 3.05a1.611 1.611 0 110-2.28c.63.62.63 1.65 0 2.28z"/>
		</g>
	</g>
</svg>
