<svg xmlns="http://www.w3.org/2000/svg" viewBox="0 0 535.05 528.04"><switch><g><path fill="none" d="M0 0h535.05v528.04H0z"/><path d="M222.56 107.82c0-1.03-.4-2-1.13-2.73s-1.7-1.13-2.73-1.13-2 .4-2.73 1.13l-.78.78-2.34 2.34-20.88 20.88c-.06.06-.11.13-.13.22l-2.34 7.02a.546.546 0 00.52.72c.06 0 .12-.01.17-.03l7.02-2.34c.08-.03.16-.07.22-.13l20.88-20.88 2.34-2.34.78-.78c.73-.73 1.13-1.7 1.13-2.73zm-4.25 4.29l-3.9-3.9.78-.78 3.9 3.9-.78.78zM192.6 130.5l3.42 3.42-5.13 1.71 1.71-5.13zm4.44 2.88l-3.9-3.9 20.49-20.49 3.9 3.9-20.49 20.49zm22.83-22.83l-3.9-3.9.78-.78c.52-.52 1.21-.81 1.95-.81s1.43.29 1.95.81.81 1.21.81 1.95-.29 1.43-.81 1.95l-.78.78z" fill="#ff3"/></g></switch></svg>