<svg xmlns="http://www.w3.org/2000/svg" viewBox="0 0 535 528"><g fill="#0CF"><path d="M273.9 17.9h-20.3c-1.7 0-3.1 1.4-3.1 3.1v40.6c0 1.7 1.4 3.1 3.1 3.1h20.3c1.7 0 3.1-1.4 3.1-3.1V21c0-1.7-1.4-3.1-3.1-3.1zm1.6 43.7c0 .9-.7 1.6-1.6 1.6h-20.3c-.9 0-1.6-.7-1.6-1.6V21c0-.9.7-1.6 1.6-1.6h20.3c.9 0 1.6.7 1.6 1.6v40.6z"/><path d="M250.5 22.6v35.9H277V22.6h-26.5zm25 34.3h-23.4V24.2h23.4v32.7zM266.9 20.3H263c-.5 0-.8.3-.8.8s.3.8.8.8h3.9c.5 0 .8-.3.8-.8s-.3-.8-.8-.8zM260.6 20.3h-.8c-.5 0-.8.3-.8.8s.3.8.8.8h.8c.5 0 .8-.3.8-.8s-.3-.8-.8-.8z"/><path d="M250.5 24.9c-.5 0-.8.3-.8.8v.8c0 .5.3.8.8.8s.8-.3.8-.8v-.8c0-.4-.3-.8-.8-.8zM250.5 28.1c-.5 0-.8.3-.8.8v.8c0 .5.3.8.8.8s.8-.3.8-.8v-.8c0-.5-.3-.8-.8-.8zM250.5 31.2c-.5 0-.8.3-.8.8v.8c0 .5.3.8.8.8s.8-.3.8-.8V32c0-.5-.3-.8-.8-.8zM263.8 57.7c-1.7 0-3.1 1.4-3.1 3.1s1.4 3.1 3.1 3.1 3.1-1.4 3.1-3.1-1.4-3.1-3.1-3.1zm0 4.7c-.9 0-1.6-.7-1.6-1.6s.7-1.6 1.6-1.6c.9 0 1.6.7 1.6 1.6s-.8 1.6-1.6 1.6zM261.4 27.3h-6.2c-.5 0-.8.3-.8.8v6.2c0 .5.3.8.8.8h6.2c.5 0 .8-.3.8-.8v-6.2c0-.5-.3-.8-.8-.8zm-.8 6.2H256v-4.7h4.7v4.7zM272.3 46h-6.2c-.5 0-.8.3-.8.8V53c0 .5.3.8.8.8h6.2c.5 0 .8-.3.8-.8v-6.2c0-.5-.3-.8-.8-.8zm-.7 6.2h-4.7v-4.7h4.7v4.7zM272.3 27.3h-7.8c-.5 0-.8.3-.8.8s.3.8.8.8h7.8c.5 0 .8-.3.8-.8s-.3-.8-.8-.8zM272.3 30.4h-7.8c-.5 0-.8.3-.8.8s.3.8.8.8h7.8c.5 0 .8-.3.8-.8s-.3-.8-.8-.8zM272.3 33.5h-7.8c-.5 0-.8.3-.8.8s.3.8.8.8h7.8c.5 0 .8-.3.8-.8s-.3-.8-.8-.8zM272.3 36.6h-17.2c-.5 0-.8.3-.8.8s.3.8.8.8h17.2c.5 0 .8-.3.8-.8 0-.4-.3-.8-.8-.8zM272.3 39.8h-17.2c-.5 0-.8.3-.8.8s.3.8.8.8h17.2c.5 0 .8-.3.8-.8s-.3-.8-.8-.8zM272.3 42.9h-17.2c-.5 0-.8.3-.8.8s.3.8.8.8h17.2c.5 0 .8-.3.8-.8s-.3-.8-.8-.8zM263 46h-7.8c-.5 0-.8.3-.8.8s.3.8.8.8h7.8c.5 0 .8-.3.8-.8s-.4-.8-.8-.8zM263 49.1h-7.8c-.5 0-.8.3-.8.8s.3.8.8.8h7.8c.5 0 .8-.3.8-.8s-.4-.8-.8-.8zM263 52.2h-7.8c-.5 0-.8.3-.8.8s.3.8.8.8h7.8c.5 0 .8-.3.8-.8s-.4-.8-.8-.8zM247.4 21c-1.3 0-2.3-1-2.3-2.3 0-1-1.6-1-1.6 0 0 1.3-1 2.3-2.3 2.3-1 0-1 1.6 0 1.6 1.3 0 2.3 1 2.3 2.3 0 1 1.6 1 1.6 0 0-1.3 1-2.3 2.3-2.3 1 0 1-1.6 0-1.6zm-3.1 1.6c-.2-.3-.5-.5-.8-.8.3-.2.5-.5.8-.8.2.3.5.5.8.8-.4.3-.6.5-.8.8zM282.5 28.8c-.5 0-.8.3-.8.8v3.1c0 .5.3.8.8.8s.8-.3.8-.8v-3.1c0-.4-.3-.8-.8-.8z"/><path d="M284 30.4h-3.1c-.5 0-.8.3-.8.8s.3.8.8.8h3.1c.5 0 .8-.3.8-.8s-.3-.8-.8-.8zM245.8 51.5c-.5 0-.8.3-.8.8s.3.8.8.8.8-.3.8-.8-.3-.8-.8-.8zM241.9 37.4c-.5 0-.8.3-.8.8s.3.8.8.8.8-.3.8-.8-.3-.8-.8-.8zM280.1 45.2c-.5 0-.8.3-.8.8s.3.8.8.8.8-.3.8-.8-.3-.8-.8-.8zM285.6 61.6c-.5 0-.8.3-.8.8s.3.8.8.8.8-.3.8-.8-.3-.8-.8-.8z"/></g></svg>