<svg xmlns="http://www.w3.org/2000/svg" viewBox="0 0 535.05 528.04"><switch><g><path fill="none" d="M0 0h535.05v528.04H0z"/><path d="M215.64 129.35c-.72.25-1.19-.01-1.73-.32-4.53-2.6-9.07-5.17-13.58-7.8-1.6-.93-1.6-2.87 0-3.8 4.51-2.63 9.05-5.2 13.58-7.8.62-.36 1.15-.55 1.94-.23 2.72 1.13 3.56 1.06 5.29-.89.4-.45.62-1.04.62-1.64 0-1.52-.7-3.02-2-3.81-.75-.45-1.62-.64-2.7-.3-1.96.61-2.84 2.09-2.78 4.12.04 1.05-.82 1.22-1.46 1.59-4.33 2.5-8.68 4.94-12.98 7.47-.96.56-1.64.65-2.73.1-1.65-.82-3.39-.53-4.59 1.09-1.19 1.6-1.09 3.25.2 4.72 1.3 1.47 2.92 1.82 4.61.71.76-.5 1.31-.56 2.1-.1 4.58 2.68 9.19 5.3 13.79 7.93.53.31 1.18.58 1.07 1.36-.14 1 .12 1.79.57 2.46.79 1.19 2.2 1.82 3.62 1.82h.93c1.28-.3 2.06-1.08 2.35-2.36v-1.4c0-.96-.36-1.89-1.01-2.58-1.42-1.47-2.14-1.36-5.11-.34zm2.4-25.21c1.33-.01 2.04.91 2.28 2.19-.19 1.3-.86 2.24-2.18 2.33-1.37.09-2.27-.84-2.33-2.09-.08-1.36.77-2.42 2.23-2.43zm-22.56 17.42c-1.46-.08-2.25-.92-2.24-2.24.02-1.31.81-2.21 2.23-2.2 1.49.01 2.36.84 2.29 2.34-.06 1.36-.95 2.06-2.28 2.1zm22.51 12.94c-1.31-.05-2.25-.91-2.18-2.28.07-1.31.93-2.1 2.28-2.26 1.3.27 2.23.98 2.17 2.35-.05 1.34-.92 2.25-2.27 2.19z" fill="#00d20b" stroke="#00d20b" stroke-miterlimit="10"/></g></switch></svg>