<svg version="1.1" xmlns="http://www.w3.org/2000/svg" viewBox="0 0 200 200" xml:space="preserve"><g  transform="translate(251.272 -72.438)"><path   d="M-151.3 78.4c18.8 0 37.1 5.6 52.6 16.1 15.1 10.2 27 24.6 34.1 41.4 12.4 29.3 9.1 62.8-8.7 89.1-10.2 15.1-24.6 27-41.4 34.1-29.3 12.4-62.8 9.1-89.1-8.7-15.1-10.2-27-24.6-34.1-41.4-12.4-29.3-9.1-62.8 8.7-89.1 10.2-15.1 24.6-27 41.4-34.1 11.5-4.9 24-7.4 36.5-7.4m0-6c-55.2 0-100 44.8-100 100s44.8 100 100 100 100-44.8 100-100-44.8-100-100-100"/><path   d="M-234.6 172.4c0 31.9 18.2 61.1 47 75l-39.8-108.9c-4.8 10.7-7.2 22.2-7.2 33.9m139.6-4.2c0-10.3-3.7-17.4-6.9-23-3.2-5.6-8.2-12.7-8.2-19.5s5.8-14.8 14-14.8h1.1c-33.9-31.1-86.6-28.8-117.7 5.2-3 3.3-5.8 6.8-8.2 10.5h5.4c8.7 0 22.2-1.1 22.2-1.1 4.5-.3 5 6.3.5 6.9 0 0-4.5.5-9.5.8l30.3 90.3 18.2-54.7-13-35.6c-4.5-.3-8.7-.8-8.7-.8-4.5-.3-4-7.1.5-6.9 0 0 13.8 1.1 21.9 1.1 8.1 0 22.2-1.1 22.2-1.1 4.5-.3 5 6.3.5 6.9 0 0-4.5.5-9.5.8l30.1 89.6 8.6-27.2c3.8-11.9 6.1-20.3 6.1-27.5m-54.8 11.5l-25 72.7c16.8 4.9 34.7 4.5 51.2-1.3l-.6-1.1-25.6-70.3zm71.7-47.2c.4 2.8.6 5.7.6 8.6 0 8.5-1.6 18-6.3 29.8l-25.5 73.6c39-22.7 52.9-72.4 31.2-112"/></g><path d="M10.8 7.7l1.6 2.9c.6 1.1 1.5 2 2.6 2.6l2.9 1.6-2.9 1.6c-1.1.6-2 1.5-2.6 2.6l-1.6 2.9L9.2 19c-.6-1.1-1.5-2-2.6-2.6l-2.9-1.6 2.9-1.6c1.1-.6 2-1.5 2.6-2.6l1.6-2.9z"/><path d="M26.5 2.5l1.8 3.6c.7 1.3 1.7 2.4 2.9 3.2l3.2 2-3.2 2c-1.2.7-2.2 1.9-2.9 3.2L26.5 20l-1.8-3.6c-.7-1.4-1.7-2.5-2.9-3.2l-3.2-2 3.2-2C23 8.5 24 7.3 24.7 6l1.8-3.5z"/><path  d="M18.6 21.8l1.1 1.9c.4.7 1 1.3 1.8 1.7l2 1-2 1c-.8.4-1.4 1-1.8 1.7L18.6 31l-1.1-2c-.4-.7-1-1.3-1.8-1.7l-2-1 2-1c.8-.4 1.4-1 1.8-1.7l1.1-1.8zM183.3 185.9l1.4 2.5c.5.9 1.3 1.7 2.2 2.2l2.5 1.4-2.5 1.4c-.9.5-1.7 1.3-2.2 2.2l-1.4 2.5-1.4-2.5c-.5-.9-1.3-1.7-2.2-2.2l-2.5-1.4 2.5-1.4c.9-.5 1.7-1.3 2.2-2.2l1.4-2.5z"/><path d="M189.4 166.5l2 4.1c.8 1.5 1.9 2.8 3.3 3.6l3.7 2.2-3.7 2.2c-1.4.8-2.5 2.1-3.3 3.6l-2 4.1-2-4.1c-.8-1.5-1.9-2.8-3.3-3.6l-3.7-2.2 3.7-2.2c1.4-.8 2.5-2.1 3.3-3.6l2-4.1z"/><path  d="M177.2 176.4l1.1 1.9c.4.7 1 1.3 1.8 1.7l2 1.1-2 1.1c-.8.4-1.4 1-1.8 1.7l-1.1 1.9-1.1-1.9c-.4-.7-1-1.3-1.8-1.7l-2-1.1 2-1.1c.8-.4 1.4-1 1.8-1.7l1.1-1.9z"/></svg>